<svg width="21" height="20" viewBox="0 0 21 20" fill="none" xmlns="http://www.w3.org/2000/svg">
<path d="M20.166 4.66667L8.83268 4.66667M8.83268 4.66667C8.83268 3.19391 7.63877 2 6.16602 2C4.69326 2 3.49935 3.19391 3.49935 4.66667M8.83268 4.66667C8.83268 6.13943 7.63877 7.33333 6.16602 7.33333C4.69326 7.33333 3.49935 6.13943 3.49935 4.66667M3.49935 4.66667L0.166016 4.66667M20.166 15.3333L16.8327 15.3333M16.8327 15.3333C16.8327 13.8606 15.6388 12.6667 14.166 12.6667C12.6933 12.6667 11.4993 13.8606 11.4993 15.3333M16.8327 15.3333C16.8327 16.8061 15.6388 18 14.166 18C12.6933 18 11.4993 16.8061 11.4993 15.3333M11.4993 15.3333L0.166016 15.3333" stroke="#0E1012" stroke-width="2"/>
</svg>
