<svg width="41" height="41" viewBox="0 0 41 41" fill="none" xmlns="http://www.w3.org/2000/svg">
<path d="M32.4293 20.947C32.4615 20.9505 32.4936 20.9505 32.5255 20.947C32.6775 21.3191 32.9939 21.599 33.3815 21.7044C33.7693 21.8096 34.184 21.7282 34.5031 21.4842C34.8223 21.2402 35.0094 20.8614 35.0094 20.4597C35.0094 20.058 34.8223 19.6791 34.5031 19.4351C34.184 19.1911 33.7693 19.1097 33.3815 19.2149C32.9939 19.3204 32.6775 19.6002 32.5255 19.9724C32.4936 19.9689 32.4615 19.9689 32.4293 19.9724H30.8546C30.8056 18.9687 30.6134 17.9774 30.2843 17.0281L31.7463 16.4478C31.7771 16.4365 31.806 16.4207 31.8326 16.4015C32.1111 16.693 32.5093 16.8377 32.9099 16.7933C33.3104 16.7489 33.6675 16.5204 33.8754 16.1752C34.0831 15.8299 34.1181 15.4073 33.9698 15.0327C33.8216 14.6578 33.507 14.3735 33.1192 14.2639C32.7316 14.1543 32.3146 14.2318 31.9922 14.4735C31.6696 14.7152 31.4783 15.0933 31.4746 15.4964C31.4427 15.5017 31.4115 15.5105 31.3817 15.523L29.9263 16.1065C29.4831 15.1402 28.8976 14.2461 28.1889 13.454L29.3161 12.3499C29.3358 12.3247 29.3534 12.2981 29.3691 12.2704C29.7371 12.4355 30.1607 12.4193 30.5149 12.2264C30.8689 12.0333 31.1122 11.6859 31.1728 11.2875C31.2334 10.8888 31.1039 10.4847 30.8231 10.1954C30.5421 9.90634 30.1423 9.76503 29.7419 9.8136C29.3416 9.8624 28.9873 10.0953 28.784 10.4436C28.5807 10.7917 28.5518 11.2149 28.706 11.5875C28.6794 11.6074 28.6496 11.6173 28.6232 11.6404L27.4993 12.7445C26.7485 12.0456 25.8995 11.4603 24.9794 11.0072L25.6094 9.56497C25.6223 9.53513 25.6323 9.50391 25.6392 9.47223C26.0407 9.48148 26.4237 9.3034 26.6753 8.99026C26.9267 8.67734 27.018 8.26475 26.9221 7.87482C26.8263 7.4849 26.5541 7.16181 26.1861 7.00083C25.8182 6.84009 25.3963 6.85975 25.0448 7.05448C24.6935 7.24898 24.453 7.59612 24.394 7.99319C24.3351 8.39051 24.4643 8.7927 24.7442 9.08086C24.7266 9.10838 24.7111 9.13729 24.6977 9.16712L24.0677 10.6093C23.0279 10.2166 21.9321 9.99274 20.8218 9.94627V8.35813C20.8253 8.32598 20.8253 8.29384 20.8218 8.26192C21.1937 8.10998 21.4738 7.79359 21.579 7.40599C21.6844 7.01814 21.603 6.60345 21.359 6.28433C21.1151 5.96518 20.7362 5.77808 20.3345 5.77808C19.9328 5.77808 19.5539 5.96518 19.3099 6.28433C19.0657 6.60349 18.9845 7.01819 19.0898 7.40599C19.195 7.7936 19.4751 8.11 19.8469 8.26192C19.8435 8.29384 19.8435 8.32598 19.8469 8.35813V9.93312V9.93289C18.7366 9.97961 17.6408 10.2035 16.601 10.5959L15.9646 9.17707C15.9512 9.14724 15.9354 9.11833 15.9181 9.09081C16.2003 8.80565 16.3332 8.40509 16.2777 8.00752C16.222 7.6102 15.9842 7.26165 15.6346 7.06485C15.2849 6.86805 14.8633 6.84583 14.4949 7.00449C14.1262 7.16314 13.8528 7.48484 13.7557 7.8741C13.6584 8.26333 13.7483 8.67569 13.9988 8.98906C14.2493 9.30267 14.6318 9.48121 15.0328 9.47219C15.0398 9.50388 15.05 9.5351 15.0627 9.56493L15.6961 11.0071C14.784 11.4567 13.9419 12.0365 13.196 12.7278L12.0489 11.6239C12.0223 11.6007 11.9925 11.5908 11.9661 11.5709V11.5707C12.1204 11.1981 12.0915 10.7751 11.8882 10.4268C11.6849 10.0788 11.3304 9.84564 10.9302 9.79682C10.5299 9.74825 10.1298 9.88956 9.84902 10.1789C9.56826 10.4682 9.43875 10.872 9.49934 11.2707C9.5597 11.6694 9.80323 12.0168 10.1573 12.2096C10.5111 12.4025 10.9351 12.4189 11.3028 12.2536C11.3185 12.2813 11.3363 12.3079 11.356 12.3331L12.4832 13.4372C11.7836 14.2201 11.2047 15.1028 10.7658 16.0566L9.31015 15.4763C9.27962 15.4627 9.24724 15.4537 9.21417 15.4497C9.21324 15.048 9.02499 14.6694 8.7049 14.4261C8.38506 14.183 7.97016 14.1028 7.58254 14.2092C7.19516 14.3158 6.87947 14.5968 6.72868 14.9694C6.57812 15.342 6.60957 15.7633 6.81425 16.1093C7.01869 16.4553 7.37277 16.6861 7.77196 16.7335C8.1709 16.7812 8.5694 16.6399 8.84944 16.3517C8.87673 16.3697 8.90564 16.3852 8.93548 16.398L10.3911 16.9817C10.0548 17.9428 9.86034 18.9482 9.81431 19.9655H8.24607C8.21393 19.9621 8.18178 19.9621 8.14986 19.9655C7.99792 19.5937 7.68153 19.3136 7.29393 19.2084C6.90608 19.1029 6.49139 19.1843 6.17227 19.4283C5.85312 19.6723 5.66602 20.0511 5.66602 20.4529C5.66602 20.8546 5.85312 21.2334 6.17227 21.4774C6.49143 21.7216 6.90613 21.8028 7.29393 21.6976C7.68154 21.5924 7.99794 21.3123 8.14986 20.9404C8.18178 20.9439 8.21392 20.9439 8.24607 20.9404H9.82106H9.82083C9.87079 21.9395 10.063 22.9263 10.3911 23.8713L8.92906 24.4548C8.89761 24.4657 8.86754 24.4803 8.83956 24.4978C8.56065 24.2088 8.16284 24.0661 7.76368 24.1121C7.3645 24.1579 7.00975 24.3873 6.80365 24.7321C6.59782 25.0772 6.56452 25.4983 6.71346 25.8716C6.8624 26.2447 7.1767 26.527 7.5636 26.6353C7.95052 26.7435 8.36566 26.6653 8.68667 26.4236C9.00768 26.1822 9.19778 25.8048 9.20079 25.403C9.23317 25.3993 9.26439 25.3903 9.29376 25.3765L10.7593 24.7962H10.7591C11.2018 25.7627 11.7873 26.6568 12.4964 27.4487L11.3692 28.5527C11.3496 28.5779 11.332 28.6045 11.3163 28.6323C10.9483 28.4672 10.5246 28.4834 10.1705 28.6765C9.81643 28.8693 9.57313 29.2167 9.51256 29.6154C9.45197 30.0139 9.58148 30.4179 9.86224 30.7072C10.1432 30.9965 10.5431 31.1378 10.9435 31.0891C11.3438 31.0405 11.6981 30.8074 11.9014 30.4593C12.1047 30.111 12.1336 29.6878 11.9793 29.3152C12.0089 29.3009 12.0367 29.283 12.0621 29.2622L13.1861 28.1582C13.934 28.8552 14.7796 29.4394 15.6961 29.8922L15.0661 31.3377C15.0527 31.3675 15.0428 31.3987 15.0363 31.4307C14.6355 31.4226 14.2539 31.6018 14.0043 31.9152C13.7545 32.2288 13.6653 32.6407 13.7626 33.0294C13.86 33.4182 14.1329 33.7394 14.5011 33.8981C14.8691 34.0567 15.29 34.0348 15.6396 33.8389C15.9891 33.6428 16.2273 33.2952 16.284 32.8983C16.3406 32.5017 16.2091 32.1011 15.9281 31.8152C15.9466 31.79 15.9632 31.7634 15.9778 31.7357L16.6078 30.2902V30.29C17.6476 30.6827 18.7433 30.9066 19.8537 30.953V32.528C19.8502 32.5599 19.8502 32.5923 19.8537 32.6242C19.4818 32.776 19.2017 33.0926 19.0965 33.4802C18.991 33.8678 19.0725 34.2825 19.3164 34.6016C19.5604 34.9207 19.9393 35.1081 20.341 35.1081C20.7427 35.1081 21.1216 34.9207 21.3656 34.6016C21.6098 34.2824 21.691 33.8677 21.5857 33.4802C21.4805 33.0926 21.2004 32.7759 20.8285 32.6242C20.832 32.5923 20.832 32.5599 20.8285 32.528V30.9665C21.9389 30.9198 23.0347 30.6959 24.0744 30.3034L24.7109 31.7223C24.7248 31.7517 24.7414 31.7794 24.7606 31.8053C24.475 32.0893 24.3383 32.4903 24.3913 32.8895C24.4442 33.2889 24.6806 33.6405 25.0305 33.8403C25.3804 34.0399 25.8035 34.0646 26.1741 33.9071C26.5449 33.7496 26.8208 33.4279 26.9198 33.0375C27.019 32.6471 26.9302 32.2329 26.6795 31.9175C26.4288 31.6022 26.0453 31.4221 25.6427 31.4306C25.6362 31.3987 25.6263 31.3675 25.6128 31.3376L24.9794 29.8922C25.8915 29.4426 26.7336 28.8628 27.4795 28.1716L28.6266 29.2755C28.652 29.2963 28.68 29.3141 28.7094 29.3286C28.5551 29.7012 28.584 30.1243 28.7873 30.4725C28.9906 30.8206 29.3452 31.0537 29.7453 31.1025C30.1456 31.1511 30.5457 31.0098 30.8265 30.7204C31.1073 30.4311 31.2368 30.0273 31.1762 29.6286C31.1158 29.2299 30.8723 28.8825 30.5182 28.6897C30.1644 28.4968 29.7404 28.4804 29.3727 28.6458C29.357 28.618 29.3392 28.5914 29.3195 28.5662L28.1923 27.4621C28.8907 26.6804 29.4685 25.7986 29.9065 24.8462L31.3654 25.423C31.3959 25.4366 31.4283 25.4456 31.4613 25.4496C31.4623 25.8513 31.6505 26.2299 31.9706 26.4732C32.2905 26.7162 32.7054 26.7965 33.093 26.6901C33.4804 26.5835 33.796 26.3025 33.9468 25.9299C34.0974 25.5573 34.0659 25.136 33.8613 24.79C33.6568 24.444 33.3027 24.2132 32.9036 24.1658C32.5046 24.1181 32.1061 24.2594 31.8261 24.5476C31.7988 24.5295 31.7699 24.5141 31.74 24.5013L30.2844 23.9211C30.6202 22.9594 30.8145 21.9543 30.8612 20.937L32.4293 20.947ZM23.7231 13.2716C24.3018 13.2716 24.8566 13.5012 25.2657 13.9103C25.6749 14.3195 25.9047 14.8745 25.9047 15.4532C25.9047 16.0316 25.6749 16.5867 25.2657 16.9958C24.8566 17.4049 24.3018 17.6348 23.7231 17.6348C23.1445 17.6348 22.5896 17.4049 22.1805 16.9958C21.7714 16.5867 21.5415 16.0316 21.5415 15.4532C21.5406 14.8743 21.7702 14.3188 22.1796 13.9094C22.5889 13.5001 23.1442 13.2707 23.7231 13.2716L23.7231 13.2716ZM20.5003 22.7936C19.9219 22.7936 19.3668 22.5637 18.9577 22.1546C18.5486 21.7455 18.3187 21.1904 18.3187 20.6118C18.3187 20.0334 18.5486 19.4783 18.9577 19.0692C19.3668 18.6601 19.9219 18.4302 20.5003 18.4302C21.079 18.4302 21.634 18.66 22.0432 19.0692C22.4523 19.4783 22.6822 20.0333 22.6822 20.6118C22.6822 21.1904 22.4523 21.7454 22.0432 22.1546C21.634 22.5637 21.079 22.7936 20.5003 22.7936ZM17.2746 13.2716C17.853 13.2716 18.408 13.5012 18.8172 13.9103C19.2263 14.3195 19.4562 14.8745 19.4562 15.4532C19.4562 16.0316 19.2263 16.5867 18.8172 16.9958C18.408 17.4049 17.853 17.6348 17.2746 17.6348C16.6959 17.6348 16.1409 17.4049 15.7317 16.9958C15.3226 16.5867 15.0927 16.0316 15.0927 15.4532C15.0927 14.8745 15.3226 14.3195 15.7317 13.9103C16.1408 13.5012 16.6959 13.2716 17.2746 13.2716ZM11.8702 20.6119C11.8702 20.0325 12.1005 19.477 12.5108 19.0679C12.9208 18.6586 13.4768 18.4291 14.0562 18.4305C14.6355 18.4317 15.1906 18.6632 15.599 19.0741C16.0075 19.4851 16.2357 20.0416 16.2334 20.6209C16.2311 21.2002 15.9984 21.7548 15.5865 22.1625C15.1749 22.57 14.618 22.7972 14.0386 22.7937C13.462 22.7909 12.91 22.5599 12.5034 22.151C12.0971 21.7419 11.8692 21.1887 11.8702 20.6119ZM17.2746 27.6278C16.6959 27.6278 16.1409 27.3981 15.7317 26.989C15.3226 26.5799 15.0927 26.0248 15.0927 25.4462C15.0927 24.8677 15.3226 24.3127 15.7317 23.9035C16.1408 23.4944 16.6959 23.2645 17.2746 23.2645C17.853 23.2645 18.408 23.4944 18.8172 23.9035C19.2263 24.3127 19.4562 24.8677 19.4562 25.4462C19.4562 26.0248 19.2263 26.5798 18.8172 26.989C18.408 27.3981 17.853 27.6278 17.2746 27.6278ZM23.7232 27.6278H23.723C23.1444 27.6278 22.5895 27.3981 22.1804 26.989C21.7713 26.5799 21.5414 26.0248 21.5414 25.4462C21.5414 24.8677 21.7713 24.3127 22.1804 23.9035C22.5895 23.4944 23.1443 23.2645 23.723 23.2645C24.3017 23.2645 24.8565 23.4944 25.2656 23.9035C25.6747 24.3127 25.9046 24.8677 25.9046 25.4462C25.9046 26.0248 25.6747 26.5798 25.2656 26.989C24.8565 27.3981 24.3017 27.6278 23.723 27.6278H23.7232ZM26.6373 22.7939C26.0589 22.7939 25.5038 22.564 25.0947 22.1549C24.6856 21.7458 24.4557 21.1907 24.4557 20.6121C24.4557 20.0337 24.6856 19.4786 25.0947 19.0695C25.5038 18.6603 26.0589 18.4304 26.6373 18.4304C27.2159 18.4304 27.771 18.6603 28.1801 19.0695C28.5893 19.4786 28.8189 20.0336 28.8189 20.6121C28.8189 21.1907 28.5893 21.7457 28.1801 22.1549C27.771 22.564 27.216 22.7939 26.6373 22.7939Z" fill="#3E3EDF"/>
</svg>
