<svg width="41" height="41" viewBox="0 0 41 41" fill="none" xmlns="http://www.w3.org/2000/svg">
<g clip-path="url(#clip0_92_132)">
<path d="M20.6548 40.1323C31.7005 40.1323 40.6548 31.178 40.6548 20.1323C40.6548 9.08663 31.7005 0.132324 20.6548 0.132324C9.60909 0.132324 0.654785 9.08663 0.654785 20.1323C0.654785 31.178 9.60909 40.1323 20.6548 40.1323Z" fill="#556080"/>
<path d="M35.2073 31.8298C34.3373 31.1423 33.2773 30.6473 32.1273 30.4073L26.6448 29.3073C26.0698 29.1948 25.6548 28.6798 25.6548 28.0823V26.6573C31.1173 26.1348 31.9048 25.0198 31.9048 23.8823C31.9048 20.5198 29.6698 12.7123 29.3023 11.4423C29.2548 9.47982 28.8973 8.37732 27.9998 7.40982C27.3648 6.72232 26.4298 6.56232 25.6773 6.43482C25.3823 6.38232 24.9748 6.31482 24.8248 6.23232C23.4923 5.51232 22.1748 5.16232 20.6023 5.13232C17.3098 5.26732 13.2623 7.36232 11.8773 11.1923C11.7773 11.5498 9.40479 20.0048 9.40479 23.8823C9.40479 25.4998 11.2323 26.3523 15.6548 26.7423V28.0823C15.6548 28.6798 15.2373 29.1948 14.6598 29.3073L9.17229 30.4073C8.02979 30.6498 6.96979 31.1398 6.10229 31.8273C5.83229 32.0448 5.66229 32.3623 5.63479 32.7073C5.60729 33.0523 5.72229 33.3898 5.95479 33.6473C9.68979 37.7698 15.0473 40.1323 20.6548 40.1323C26.2623 40.1323 31.6223 37.7698 35.3548 33.6473C35.5873 33.3898 35.7048 33.0498 35.6748 32.7048C35.6473 32.3623 35.4773 32.0448 35.2073 31.8298Z" fill="#E7ECED"/>
</g>
<defs>
<clipPath id="clip0_92_132">
<rect width="40" height="40" fill="white" transform="translate(0.654785 0.132324)"/>
</clipPath>
</defs>
</svg>
