<svg width="41" height="41" viewBox="0 0 41 41" fill="none" xmlns="http://www.w3.org/2000/svg">
<g clip-path="url(#clip0_23_13)">
<path d="M19.8409 9.11145H32.2815V13.366H19.8409V9.11145Z" fill="#E09F1F"/>
<path d="M7.45432 23.7599C5.89258 25.3216 5.731 27.8529 7.07731 29.5763L13.2708 23.3828C11.5473 22.0365 9.01622 22.1981 7.45437 23.7598L7.45432 23.7599Z" fill="#E09F1F"/>
<path d="M7.88501 30.384C9.60833 31.7304 12.0857 31.5688 13.7014 30.007C15.2632 28.4453 15.4248 25.9139 14.0785 24.1906L7.88501 30.384Z" fill="#E09F1F"/>
<path d="M13.2704 11.4811C11.5471 10.1347 9.01606 10.2963 7.45451 11.8581C5.89276 13.4198 5.73118 15.9511 7.07749 17.6745L13.2704 11.4811Z" fill="#E09F1F"/>
<path d="M7.88501 18.482C9.60833 19.8283 12.0857 19.6668 13.7014 18.105C15.2632 16.5433 15.4248 14.012 14.0785 12.2886L7.88501 18.482Z" fill="#E09F1F"/>
<path d="M26.842 23.2213V20.9595H25.3342V23.2753C25.3342 23.5984 25.065 23.8678 24.7417 23.8678H22.4258V25.3756H24.7417C25.0648 25.3756 25.3342 25.6448 25.3342 25.9681V28.284H26.842V25.9681C26.842 25.645 27.1112 25.3756 27.4345 25.3756H29.7504V23.8678H27.4345C27.1112 23.8139 26.842 23.5445 26.842 23.2214V23.2213Z" fill="#E09F1F"/>
<path d="M33.2505 17.513C32.2273 16.8129 31.5272 15.7897 31.2578 14.551H20.9177C20.6485 15.7358 19.8944 16.8129 18.9249 17.513C18.3324 17.89 18.0093 18.5362 18.0093 19.2363V30.7072C18.0093 31.8919 18.9786 32.8075 20.1097 32.8075H32.0656C33.2503 32.8075 34.1659 31.8382 34.1659 30.7072V19.2363C34.1659 18.5362 33.8428 17.89 33.2503 17.513H33.2505ZM30.881 25.9144C30.881 26.2375 30.6118 26.5069 30.2885 26.5069H27.9727V28.8227C27.9727 29.1458 27.7035 29.4152 27.3802 29.4152H24.6874C24.3643 29.4152 24.0949 29.146 24.0949 28.8227V26.5069H21.779C21.4559 26.5069 21.1865 26.2377 21.1865 25.9144V23.2215C21.1865 22.8984 21.4557 22.629 21.779 22.629H24.0949V20.3132C24.0949 19.9901 24.3641 19.7207 24.6874 19.7207H27.3802C27.7033 19.7207 27.9727 19.9899 27.9727 20.3132V22.629H30.2885C30.6116 22.629 30.881 22.8982 30.881 23.2215V25.9144Z" fill="#E09F1F"/>
</g>
<defs>
<clipPath id="clip0_23_13">
<rect width="28" height="28" fill="white" transform="translate(6.16602 6.77808)"/>
</clipPath>
</defs>
</svg>
