<svg width="41" height="41" viewBox="0 0 41 41" fill="none" xmlns="http://www.w3.org/2000/svg">
<path d="M6.18323 28.0194H10.0453V34.778H6.18323V28.0194Z" fill="#229818"/>
<path d="M22.8384 26.0884C24.3026 26.0884 25.4936 27.2799 25.4936 28.7436C25.4936 28.9946 25.4588 29.2375 25.3931 29.4677H26.7299L32.5095 26.8005C32.8334 26.6504 33.194 26.5712 33.5522 26.5712H33.6256C33.8178 26.5712 34.0031 26.5977 34.1832 26.6392V13.5367C34.1832 12.4703 33.3186 11.6057 32.2522 11.6057H29.3556V8.70911C29.3556 7.6427 28.491 6.77808 27.4246 6.77808H21.6315C20.5651 6.77808 19.7004 7.6427 19.7004 8.70911V11.6057H16.8039C15.7375 11.6057 14.8729 12.4703 14.8729 13.5367V27.1365L15.9209 26.0884H22.8384ZM21.6315 8.70911H27.4246V11.6057H21.6315V8.70911ZM24.528 14.5022C27.4608 14.5022 29.8384 16.8798 29.8384 19.8126C29.8384 22.7453 27.4608 25.1229 24.528 25.1229C21.5953 25.1229 19.2177 22.7453 19.2177 19.8126C19.2177 16.8798 21.5953 14.5022 24.528 14.5022Z" fill="#229818"/>
<path d="M23.5626 22.7091H25.4936V20.7781H27.4246V18.8471H25.4936V16.916H23.5626V18.8471H21.6315V20.7781H23.5626V22.7091Z" fill="#229818"/>
<path d="M33.6256 27.5367H33.5523C33.3316 27.5367 33.1139 27.5845 32.914 27.6767L26.9418 30.4333H22.8384C23.7716 30.4333 24.528 29.6768 24.528 28.7436C24.528 27.8104 23.7716 27.054 22.8384 27.054H16.3211L14.3901 28.985H11.0108V34.2953H27.4246L34.3725 30.3874C34.8518 30.1175 35.1487 29.6102 35.1487 29.0598C35.1487 28.2184 34.4671 27.5367 33.6256 27.5367ZM22.597 31.3988H19.2177C18.9512 31.3988 18.7349 31.1825 18.7349 30.916C18.7349 30.6495 18.9512 30.4333 19.2177 30.4333H22.597C22.8635 30.4333 23.0798 30.6495 23.0798 30.916C23.0798 31.1825 22.8635 31.3988 22.597 31.3988Z" fill="#229818"/>
</svg>
