<svg width="41" height="41" viewBox="0 0 41 41" fill="none" xmlns="http://www.w3.org/2000/svg">
<path d="M26.8739 23.0143V32.0958C27.7401 32.4042 28.3645 33.2228 28.3645 34.1945C28.3645 35.4288 27.3627 36.4306 26.1284 36.4306C24.8944 36.4306 23.8927 35.4288 23.8927 34.1945C23.8927 33.2225 24.5173 32.4043 25.3833 32.0958V23.0143H23.8927C23.8927 24.6602 22.2247 25.9958 20.1661 25.9958C18.1072 25.9955 16.4392 24.6599 16.4392 23.0143H14.9486V26.0716C16.6481 26.4175 17.9301 27.9216 17.9301 29.7224V32.7038C17.9301 33.7697 17.4619 34.7879 16.6466 35.5018C16.5048 35.6239 16.3304 35.685 16.156 35.685C15.9488 35.685 15.7415 35.5987 15.5955 35.4302C15.3242 35.1203 15.3569 34.6491 15.6671 34.3778C16.1575 33.9498 16.4392 33.3387 16.4392 32.7036V29.7221C16.4392 28.4896 15.436 27.4864 14.2032 27.4864C12.9704 27.4864 11.9672 28.4896 11.9672 29.7224V32.7038C11.9672 33.3389 12.2489 33.9501 12.7408 34.3778C13.0507 34.6491 13.0822 35.1202 12.8124 35.4302C12.5411 35.7402 12.0685 35.7701 11.7615 35.5018C10.9445 34.7876 10.4766 33.7694 10.4766 32.7036V29.7221C10.4766 27.9213 11.7585 26.4173 13.458 26.0714L13.4578 23.0143C10.1649 23.0143 7.49518 25.684 7.49518 28.9769V37.921H32.8369V28.9769C32.8369 25.684 30.1669 23.0143 26.874 23.0143L26.8739 23.0143Z" fill="#1C6BA4"/>
<path d="M17.5887 21.0064C18.3818 21.3373 19.2525 21.5235 20.1661 21.5235C21.08 21.5235 21.9505 21.3371 22.7436 21.0062C25.1675 19.9958 26.8742 17.606 26.8742 14.8155V12.5795H13.4581V14.8155C13.4581 17.606 15.1635 19.9958 17.5887 21.0064V21.0064Z" fill="#1C6BA4"/>
<path d="M26.8738 6.47793C25.0224 4.58332 22.5942 3.63525 20.1658 3.63525C17.7376 3.63525 15.3107 4.58332 13.4578 6.47793V11.0887H26.8738V6.47793ZM22.4018 8.10728H20.9112V9.59787H19.4206V8.10728H17.93L17.9298 6.61669H19.4204L19.4206 5.1261H20.9112V6.61669H22.4018V8.10728Z" fill="#1C6BA4"/>
</svg>
