<svg width="41" height="41" viewBox="0 0 41 41" fill="none" xmlns="http://www.w3.org/2000/svg">
<path d="M23.3379 19.8148L21.8825 17.6757L20.4438 20.8597C20.3633 21.0404 20.208 21.1475 20.0312 21.1475L20.0294 21.1477C19.8526 21.1477 19.6975 21.0417 19.6168 20.862L18.5983 18.6444L17.9883 19.7718C17.8753 19.983 17.6298 20.1293 17.3901 20.1293H14.7946C14.5893 20.1293 14.4243 20.2952 14.4243 20.4996C14.4243 20.7039 14.5893 20.8708 14.7946 20.8708H17.242C17.9689 21.6908 19.0472 22.4334 20.5871 22.9647C22.5817 22.2772 23.8075 21.2391 24.4851 20.1293H23.9321C23.7083 20.1311 23.4628 20.0016 23.3379 19.8148L23.3379 19.8148Z" fill="#009DC7"/>
<path d="M26.8376 18.6579H25.0785C25.4626 16.848 24.6524 15.1625 23.5455 14.7667C21.5588 14.0566 20.5873 15.853 20.5873 15.853C20.5873 15.853 19.617 14.0566 17.6292 14.7667C16.3731 15.2155 15.5 17.3232 16.315 19.3895H17.3532L18.2106 17.8024C18.3011 17.6345 18.4582 17.5363 18.633 17.5422C18.8077 17.5481 18.959 17.6553 19.0397 17.83L20.0276 19.9829L21.4046 16.9375C21.4792 16.7704 21.6255 16.6614 21.7935 16.6467C21.9644 16.6291 22.1253 16.7146 22.2266 16.8667L23.9493 19.3985H26.8368C27.04 19.3985 27.2071 19.2314 27.2071 19.0273C27.2069 18.8229 27.0409 18.6579 26.8377 18.6579L26.8376 18.6579Z" fill="#009DC7"/>
<path d="M30.5648 9.24016H26.4063L26.4066 8.43963C26.4066 7.8188 25.9017 7.31512 25.281 7.31512H24.3068C23.6243 6.09135 22.318 5.26257 20.8173 5.26257C19.3158 5.26257 18.0095 6.09158 17.3258 7.31512H16.3517C15.73 7.31512 15.2261 7.81903 15.2261 8.43963V9.239L11.0658 9.23923C9.93431 9.23923 9.01329 10.1605 9.01329 11.2918L9.01306 34.6386C9.01306 35.7701 9.93432 36.6911 11.0656 36.6911H30.5649C31.6964 36.6911 32.6174 35.7699 32.6174 34.6386L32.6177 11.2923C32.6177 10.1602 31.6964 9.23981 30.5649 9.23981L30.5648 9.24016ZM11.0661 34.6387V11.2924H15.2245V12.413C15.2245 13.0347 15.7293 13.5376 16.3501 13.5376H25.2797C25.9014 13.5376 26.4053 13.0348 26.4053 12.413L26.4048 11.2924H30.5633L30.5653 34.6387H11.0661Z" fill="#009DC7"/>
<path d="M22.3049 26.0775C22.3049 26.1982 22.2067 26.2965 22.0858 26.2965L13.9011 26.2963C13.7804 26.2963 13.682 26.1982 13.682 26.0772V25.2021C13.682 25.0814 13.7801 24.983 13.9011 24.983H22.0864C22.2071 24.983 22.3054 25.0811 22.3054 25.2021L22.3049 26.0775Z" fill="#009DC7"/>
<path d="M25.8034 27.0046C25.5658 27.0046 25.3447 26.8916 25.1935 26.6924L23.4904 24.4602L24.4284 23.7442L25.7631 25.4942L27.9445 21.9135L28.9512 22.5272L26.4556 26.6275C26.317 26.8534 26.0952 26.9908 25.8418 27.0046C25.828 27.0035 25.8172 27.0046 25.8034 27.0046L25.8034 27.0046Z" fill="#009DC7"/>
<path d="M22.3049 31.9791C22.3049 32.0998 22.2067 32.197 22.0858 32.197L13.9011 32.1972C13.7804 32.1972 13.682 32.1 13.682 31.9793V31.1032C13.682 30.9825 13.7801 30.8842 13.9011 30.8842H22.0864C22.2071 30.8842 22.3054 30.9823 22.3054 31.1032L22.3049 31.9791Z" fill="#009DC7"/>
<path d="M25.8034 32.9055C25.5658 32.9055 25.3447 32.7925 25.1935 32.5933L23.4904 30.3611L24.4284 29.6451L25.7631 31.3943L27.9445 27.8135L28.9512 28.4272L26.4556 32.5287C26.317 32.7536 26.0952 32.892 25.8418 32.9058C25.828 32.9056 25.8172 32.9056 25.8034 32.9056L25.8034 32.9055Z" fill="#009DC7"/>
</svg>
