<svg width="41" height="41" viewBox="0 0 41 41" fill="none" xmlns="http://www.w3.org/2000/svg">
<path d="M32.8994 16.5358H11.4761C10.9223 16.5358 10.4541 16.8898 10.2771 17.4037L6.23451 30.4106C5.98899 31.21 6.58852 32.0322 7.43358 32.0322H28.8568C29.4107 32.0322 29.8789 31.6782 30.0559 31.1643L34.1213 18.1745C34.3383 17.358 33.7387 16.5358 32.8994 16.5358ZM25.7279 25.6829H21.554V29.8568H18.7562V25.6829H14.5823V22.8851H18.7562V18.7112H21.554V22.8851H25.7279V25.6829Z" fill="#9D4C6C"/>
<path d="M9.20935 17.0724C9.51768 16.0732 10.4313 15.4052 11.4762 15.4052H30.193V13.9149C30.193 13.224 29.6391 12.6702 28.9482 12.6702H18.7562C17.8883 12.6702 17.1803 11.9621 17.1803 11.0942C17.1803 10.2264 16.4665 9.52405 15.6044 9.52405H7.41076C6.72558 9.52405 6.16602 10.1007 6.16602 10.7859V26.7734L9.20935 17.0724Z" fill="#9D4C6C"/>
</svg>
