<svg width="14" height="10" viewBox="0 0 14 10" fill="none" xmlns="http://www.w3.org/2000/svg">
<path fill-rule="evenodd" clip-rule="evenodd" d="M0.654785 1.66572C0.654785 0.947753 1.23681 0.365723 1.95479 0.365723H12.3548C13.0728 0.365723 13.6548 0.947752 13.6548 1.66572V8.59906C13.6548 9.31703 13.0728 9.89906 12.3548 9.89906H1.95479C1.23682 9.89906 0.654785 9.31703 0.654785 8.59906V1.66572ZM3.25479 3.83239C3.25479 2.8751 4.03082 2.09906 4.98812 2.09906C5.94541 2.09906 6.72145 2.8751 6.72145 3.83239C6.72145 4.78968 5.94541 5.56572 4.98812 5.56572C4.03082 5.56572 3.25479 4.78968 3.25479 3.83239ZM11.0548 3.83239H8.45479V2.96572H11.0548V3.83239ZM11.0548 6.43239H8.45479V5.56572H11.0548V6.43239ZM4.98812 6.43239C4.02726 6.43239 3.14887 6.97527 2.71916 7.83469L2.43387 8.40526C2.3667 8.53959 2.37388 8.69912 2.45284 8.82687C2.53179 8.95463 2.67127 9.03239 2.82145 9.03239H7.15479C7.30497 9.03239 7.44445 8.95463 7.5234 8.82687C7.60236 8.69912 7.60953 8.53959 7.54237 8.40526L7.25708 7.83469C6.82737 6.97527 5.94898 6.43239 4.98812 6.43239Z" fill="#199A8E"/>
</svg>
