<svg width="41" height="41" viewBox="0 0 41 41" fill="none" xmlns="http://www.w3.org/2000/svg">
<g clip-path="url(#clip0_92_155)">
<path d="M20.6548 40.5879C31.7005 40.5879 40.6548 31.6336 40.6548 20.5879C40.6548 9.5422 31.7005 0.587891 20.6548 0.587891C9.60909 0.587891 0.654785 9.5422 0.654785 20.5879C0.654785 31.6336 9.60909 40.5879 20.6548 40.5879Z" fill="#556080"/>
<path d="M35.2073 32.2829C34.3373 31.5954 33.2773 31.1004 32.1273 30.8604L26.6448 29.7604C26.0698 29.6504 25.6548 29.1354 25.6548 28.5354V27.2779C26.0073 26.7829 26.3398 26.1254 26.6873 25.4379C26.9573 24.9054 27.3648 24.1029 27.5673 23.8954C28.6773 22.7804 29.7498 21.5279 30.0823 19.9129C30.3923 18.3979 30.0873 17.6029 29.7298 16.9629C29.7298 15.3654 29.6798 13.3654 29.3023 11.9104C29.2573 9.94039 28.8998 8.83289 27.9998 7.86289C27.3648 7.17539 26.4298 7.01539 25.6773 6.88789C25.3823 6.83789 24.9748 6.76789 24.8248 6.68789C23.4923 5.96789 22.1748 5.61539 20.6023 5.58789C17.3098 5.72289 13.2623 7.81789 11.9073 11.5529C11.4873 12.6904 11.5298 14.5579 11.5648 16.0579L11.5323 16.9604C11.2098 17.5904 10.8923 18.3904 11.2048 19.9104C11.5348 21.5279 12.6073 22.7829 13.7373 23.9129C13.9223 24.1029 14.3398 24.9129 14.6148 25.4479C14.9673 26.1329 15.3023 26.7879 15.6548 27.2804V28.5379C15.6548 29.1354 15.2373 29.6504 14.6598 29.7629L9.17229 30.8629C8.02979 31.1054 6.96979 31.5954 6.10229 32.2829C5.83229 32.5004 5.66229 32.8179 5.63479 33.1629C5.60729 33.5079 5.72229 33.8454 5.95479 34.1029C9.68979 38.2229 15.0473 40.5879 20.6548 40.5879C26.2623 40.5879 31.6223 38.2254 35.3548 34.1029C35.5873 33.8454 35.7048 33.5054 35.6748 33.1604C35.6473 32.8154 35.4773 32.4979 35.2073 32.2829Z" fill="#E7ECED"/>
</g>
<defs>
<clipPath id="clip0_92_155">
<rect width="40" height="40" fill="white" transform="translate(0.654785 0.587891)"/>
</clipPath>
</defs>
</svg>
